<svg width="24" height="24" viewBox="0 0 24 24" fill="none" xmlns="http://www.w3.org/2000/svg">
  <path d="M12 0C5.373 0 0 5.373 0 12s5.373 12 12 12 12-5.373 12-12S18.627 0 12 0zm5.568 7.178l-6.061 1.515-1.515 6.061L4.432 16.822l6.061-1.515 1.515-6.061L17.568 7.178z" fill="#FC6D26"/>
  <path d="M12 2.159l3.568 8.661L12 21.841l-3.568-11.021L12 2.159z" fill="#E24329"/>
  <path d="M12 2.159L8.432 10.82H4.432L12 2.159z" fill="#FC6D26"/>
  <path d="M4.432 10.82l1.515 6.061L12 21.841l-7.568-11.021z" fill="#FCA326"/>
  <path d="M12 2.159l3.568 8.661h4L12 2.159z" fill="#FC6D26"/>
  <path d="M19.568 10.82l-1.515 6.061L12 21.841l7.568-11.021z" fill="#FCA326"/>
</svg>
